<svg width="94" height="140" viewBox="0 0 94 140" fill="none" xmlns="http://www.w3.org/2000/svg">
<g clip-path="url(#clip0_134_4193)">
<path d="M17.1954 16.4993V23.2521C17.1954 30.6315 22.1382 35.9226 29.3784 35.9226H63.282C70.5917 35.9226 75.5346 30.6315 75.5346 23.2521V16.4993C75.5346 16.2904 75.5346 16.0119 75.5346 15.8031H75.8827C86.8822 15.8031 92.7302 21.7205 92.7302 33.5555V115.495C92.7302 127.399 86.8822 133.247 75.1865 133.247H17.4739C5.77821 133.247 0 127.399 0 115.495V33.5555C0 21.7205 5.77821 15.8031 16.8474 15.8031H17.1954C17.1954 16.0119 17.1954 16.2904 17.1954 16.4993ZM21.7902 106.444C19.5624 106.444 17.822 108.185 17.822 110.413C17.822 112.571 19.632 114.381 21.7902 114.381H49.8457C52.004 114.381 53.8141 112.571 53.8141 110.413C53.8141 108.185 52.0735 106.444 49.8457 106.444H21.7902ZM21.7902 85.4897C19.5624 85.4897 17.822 87.2303 17.822 89.3885C17.822 91.6163 19.5624 93.3566 21.7902 93.3566H70.9398C73.1676 93.3566 74.9082 91.6163 74.9082 89.3885C74.9082 87.2303 73.1676 85.4897 70.9398 85.4897H21.7902ZM32.6505 54.0924C31.258 51.3775 28.9607 49.7067 25.9672 49.7067C21.3029 49.7067 17.8916 53.3266 17.8916 58.3391C17.8916 65.4399 25.4799 71.5665 31.1885 75.7434C31.7454 76.161 32.3719 76.4397 32.72 76.4397C33.2074 76.4397 33.625 76.0915 34.182 75.7434C40.0995 72.0537 47.479 65.4399 47.479 58.3391C47.479 53.3266 44.0675 49.7067 39.2642 49.7067C36.4097 49.7067 34.0427 51.3775 32.6505 54.0924ZM58.7567 11.5564H63.282C66.6931 11.5564 68.7816 13.7146 68.7816 17.4043V23.2521C68.7816 26.9418 66.6931 29.1 63.282 29.1H29.3784C25.9672 29.1 23.9483 26.9418 23.9483 23.2521V17.4043C23.9483 13.7146 25.9672 11.5564 29.3784 11.5564H33.9037C34.3908 5.15168 39.7513 0 46.3651 0C52.9785 0 58.3391 5.15168 58.7567 11.5564ZM41.631 12.0438C41.631 14.6196 43.7892 16.7777 46.3651 16.7777C48.941 16.7777 51.0294 14.6196 51.0294 12.0438C51.0294 9.46793 48.941 7.37943 46.3651 7.37943C43.7892 7.37943 41.631 9.46793 41.631 12.0438Z" fill="#B1374E"/>
</g>
<defs>
<clipPath id="clip0_134_4193">
<rect width="93.7742" height="140" fill="white"/>
</clipPath>
</defs>
</svg>
