<svg width="426" height="67" viewBox="0 0 426 67" fill="none" xmlns="http://www.w3.org/2000/svg">
<path opacity="0.4" d="M0.00976562 64.5183V2.34229H26.2614C30.6517 2.34229 34.4406 3.14629 37.6281 4.75429C41.2967 6.60051 44.2135 9.25073 46.3786 12.705C48.5437 16.0996 49.6262 19.8516 49.6262 23.961C49.6262 28.0703 48.5437 31.8521 46.3786 35.3063C44.2737 38.7605 41.3869 41.4107 37.7183 43.257C34.5909 44.865 30.772 45.669 26.2614 45.669H16.4283V64.5183H0.00976562Z" fill="white"/>
<path d="M85.2611 2.34244H88.7794L114.58 64.5184H110.971L102.492 43.9718H71.549L62.9788 64.5184H59.4606L85.2611 2.34244ZM72.9021 40.7558H101.138L86.9752 6.63044L72.9021 40.7558ZM166.724 4.39711C170.332 6.06467 173.159 8.53622 175.204 11.8118C177.308 15.0873 178.361 18.7202 178.361 22.7104C178.361 27.3558 176.918 31.5247 174.031 35.2171C171.204 38.85 167.566 41.262 163.115 42.4531L179.083 64.5184H175.113L159.687 43.0784L156.8 43.1678H134.157V64.5184H130.819V2.34244H154.725C157.372 2.34244 159.627 2.52111 161.491 2.87844C163.416 3.17622 165.16 3.68244 166.724 4.39711ZM157.702 39.8624C160.83 39.8624 163.717 39.0882 166.363 37.5398C169.009 35.9913 171.114 33.9069 172.678 31.2864C174.241 28.666 175.023 25.8073 175.023 22.7104C175.023 19.2562 174.091 16.1296 172.227 13.3304C170.422 10.5313 167.896 8.44689 164.649 7.07711C162.303 6.12422 158.995 5.64778 154.725 5.64778H134.157V39.8624H157.702ZM218.596 2.34244C223.167 2.34244 227.377 3.474 231.226 5.73711C235.135 8.00022 238.232 11.0673 240.518 14.9384C242.803 18.75 243.946 22.9189 243.946 27.4451V39.4158C243.946 43.942 242.803 48.1407 240.518 52.0118C238.232 55.8233 235.135 58.8607 231.226 61.1238C227.377 63.3869 223.167 64.5184 218.596 64.5184H195.412V2.34244H218.596ZM240.608 27.4451C240.608 23.5144 239.616 19.8816 237.631 16.5464C235.646 13.2113 232.94 10.5611 229.512 8.59578C226.144 6.63044 222.475 5.64778 218.506 5.64778H198.75V61.2131H218.506C222.475 61.2131 226.144 60.2304 229.512 58.2651C232.94 56.2998 235.646 53.6496 237.631 50.3144C239.616 46.9793 240.608 43.3464 240.608 39.4158V27.4451ZM285.355 1.00244C290.046 1.00244 294.376 2.16377 298.345 4.48644C302.315 6.74956 305.442 9.84644 307.727 13.7771C310.073 17.7078 311.246 21.9958 311.246 26.6411V40.2198C311.246 44.8651 310.073 49.1531 307.727 53.0838C305.442 57.0144 302.315 60.1411 298.345 62.4638C294.376 64.7269 290.046 65.8584 285.355 65.8584C280.664 65.8584 276.334 64.7269 272.364 62.4638C268.395 60.1411 265.238 57.0144 262.892 53.0838C260.607 49.1531 259.464 44.8651 259.464 40.2198V26.6411C259.464 21.9958 260.607 17.7078 262.892 13.7771C265.238 9.84644 268.395 6.74956 272.364 4.48644C276.334 2.16377 280.664 1.00244 285.355 1.00244ZM262.802 40.2198C262.802 44.2696 263.794 48.0216 265.779 51.4758C267.824 54.8704 270.56 57.5802 273.988 59.6051C277.476 61.5704 281.265 62.5531 285.355 62.5531C289.444 62.5531 293.203 61.5704 296.631 59.6051C300.119 57.5802 302.856 54.8704 304.841 51.4758C306.885 48.0216 307.908 44.2696 307.908 40.2198V26.6411C307.908 22.5913 306.885 18.8691 304.841 15.4744C302.856 12.0202 300.119 9.31044 296.631 7.34511C293.203 5.32022 289.444 4.30778 285.355 4.30778C281.265 4.30778 277.476 5.32022 273.988 7.34511C270.56 9.31044 267.824 12.0202 265.779 15.4744C263.794 18.8691 262.802 22.5913 262.802 26.6411V40.2198ZM326.942 64.5184V2.34244H330.461L374.304 44.5078V2.34244H377.641V64.5184H374.304V49.1531L330.28 6.63044V64.5184H326.942Z" fill="white"/>
<path d="M409.398 57.729C409.398 55.5254 410.18 53.6494 411.744 52.101C413.368 50.493 415.322 49.689 417.608 49.689C419.893 49.689 421.818 50.493 423.381 52.101C425.005 53.6494 425.817 55.5254 425.817 57.729C425.817 59.9325 425.005 61.8383 423.381 63.4463C421.818 65.0543 419.893 65.8583 417.608 65.8583C415.382 65.8583 413.458 65.0543 411.834 63.4463C410.21 61.8383 409.398 59.9325 409.398 57.729Z" fill="white"/>
</svg>
