<svg width="35" height="35" viewBox="0 0 35 35" fill="none" xmlns="http://www.w3.org/2000/svg">
<path d="M0.140751 34V0.591998H14.1088C16.4448 0.591998 18.4608 1.024 20.1568 1.888C22.1088 2.88 23.6608 4.304 24.8128 6.16C25.9648 7.984 26.5408 10 26.5408 12.208C26.5408 14.416 25.9648 16.448 24.8128 18.304C23.6928 20.16 22.1568 21.584 20.2048 22.576C18.5408 23.44 16.5087 23.872 14.1088 23.872H8.87675V34H0.140751Z" fill="#D42F49" fill-opacity="0.4"/>
<path d="M25.392 30.352C25.392 29.168 25.808 28.16 26.64 27.328C27.504 26.464 28.544 26.032 29.76 26.032C30.976 26.032 32 26.464 32.832 27.328C33.696 28.16 34.128 29.168 34.128 30.352C34.128 31.536 33.696 32.56 32.832 33.424C32 34.288 30.976 34.72 29.76 34.72C28.576 34.72 27.552 34.288 26.688 33.424C25.824 32.56 25.392 31.536 25.392 30.352Z" fill="#B99D69"/>
</svg>
