<svg width="1097" height="235" viewBox="0 0 1097 235" fill="none" xmlns="http://www.w3.org/2000/svg">
<path d="M0.0252075 167.776V6.09137H67.6262C78.9318 6.09137 88.6886 8.18213 96.8968 12.3636C106.344 17.1646 113.855 24.0564 119.43 33.0389C125.006 41.8665 127.793 51.6233 127.793 62.3094C127.793 72.9955 125.006 82.8298 119.43 91.8122C114.01 100.795 106.576 107.686 97.1291 112.487C89.0758 116.669 79.2415 118.76 67.6262 118.76H42.3049V167.776H0.0252075Z" fill="#D42F49" fill-opacity="0.44"/>
<path d="M219.558 6.09191H228.618L295.058 167.777H285.765L263.929 114.346H184.248L162.179 167.777H153.119L219.558 6.09191ZM187.732 105.983H260.444L223.972 17.2426L187.732 105.983ZM429.334 11.435C438.626 15.7713 445.905 22.1985 451.17 30.7163C456.591 39.2342 459.301 48.6813 459.301 59.0577C459.301 71.1376 455.584 81.9785 448.15 91.5805C440.871 101.028 431.502 107.3 420.041 110.397L461.159 167.777H450.938L411.214 112.023L403.78 112.256H345.471V167.777H336.876V6.09191H398.437C405.251 6.09191 411.059 6.55653 415.86 7.48575C420.816 8.26011 425.307 9.57651 429.334 11.435ZM406.103 103.66C414.156 103.66 421.59 101.647 428.404 97.6204C435.219 93.5938 440.639 88.1733 444.666 81.359C448.692 74.5447 450.706 67.1109 450.706 59.0577C450.706 50.0752 448.305 41.9445 443.504 34.6655C438.858 27.3866 432.354 21.9662 423.991 18.4041C417.951 15.9262 409.433 14.6872 398.437 14.6872H345.471V103.66H406.103ZM562.912 6.09191C574.682 6.09191 585.523 9.03446 595.435 14.9195C605.501 20.8046 613.477 28.7805 619.362 38.847C625.247 48.7588 628.19 59.5997 628.19 71.3699V102.499C628.19 114.269 625.247 125.187 619.362 135.254C613.477 145.166 605.501 153.064 595.435 158.949C585.523 164.834 574.682 167.777 562.912 167.777H503.209V6.09191H562.912ZM619.595 71.3699C619.595 61.1484 617.039 51.7013 611.929 43.0286C606.818 34.3558 599.849 27.4641 591.021 22.3533C582.348 17.2426 572.901 14.6872 562.68 14.6872H511.805V159.181H562.68C572.901 159.181 582.348 156.626 591.021 151.515C599.849 146.405 606.818 139.513 611.929 130.84C617.039 122.167 619.595 112.72 619.595 102.499V71.3699ZM734.823 2.60732C746.903 2.60732 758.054 5.6273 768.275 11.6673C778.496 17.5523 786.55 25.6056 792.435 35.8271C798.475 46.0485 801.495 57.1992 801.495 69.2791V104.59C801.495 116.67 798.475 127.82 792.435 138.042C786.55 148.263 778.496 156.394 768.275 162.434C758.054 168.319 746.903 171.261 734.823 171.261C722.743 171.261 711.592 168.319 701.371 162.434C691.149 156.394 683.019 148.263 676.979 138.042C671.094 127.82 668.151 116.67 668.151 104.59V69.2791C668.151 57.1992 671.094 46.0485 676.979 35.8271C683.019 25.6056 691.149 17.5523 701.371 11.6673C711.592 5.6273 722.743 2.60732 734.823 2.60732ZM676.746 104.59C676.746 115.121 679.302 124.878 684.413 133.86C689.678 142.688 696.725 149.734 705.552 155C714.535 160.111 724.292 162.666 734.823 162.666C745.354 162.666 755.034 160.111 763.861 155C772.844 149.734 779.89 142.688 785.001 133.86C790.267 124.878 792.899 115.121 792.899 104.59V69.2791C792.899 58.7479 790.267 49.0685 785.001 40.2409C779.89 31.2584 772.844 24.2118 763.861 19.101C755.034 13.8354 745.354 11.2026 734.823 11.2026C724.292 11.2026 714.535 13.8354 705.552 19.101C696.725 24.2118 689.678 31.2584 684.413 40.2409C679.302 49.0685 676.746 58.7479 676.746 69.2791V104.59ZM841.916 167.777V6.09191H850.976L963.877 115.74V6.09191H972.472V167.777H963.877V127.82L850.511 17.2426V167.777H841.916Z" fill="#D42F49"/>
<path d="M1054.25 150.122C1054.25 144.391 1056.26 139.513 1060.29 135.486C1064.47 131.305 1069.5 129.214 1075.39 129.214C1081.27 129.214 1086.23 131.305 1090.26 135.486C1094.44 139.513 1096.53 144.391 1096.53 150.122C1096.53 155.852 1094.44 160.808 1090.26 164.989C1086.23 169.171 1081.27 171.261 1075.39 171.261C1069.66 171.261 1064.7 169.171 1060.52 164.989C1056.34 160.808 1054.25 155.852 1054.25 150.122Z" fill="#B99D69"/>
<path d="M34.308 200.137L27.036 225.229H23.364L17.532 205.033L11.484 225.229L7.848 225.265L0.828 200.137H4.32L9.792 221.413L15.84 200.137H19.512L25.272 221.341L30.78 200.137H34.308ZM36.4091 215.293C36.4091 213.277 36.8171 211.513 37.6331 210.001C38.4491 208.465 39.5651 207.277 40.9811 206.437C42.4211 205.597 44.0171 205.177 45.7691 205.177C47.4971 205.177 48.9971 205.549 50.2691 206.293C51.5411 207.037 52.4891 207.973 53.1131 209.101V205.501H56.4251V225.229H53.1131V221.557C52.4651 222.709 51.4931 223.669 50.1971 224.437C48.9251 225.181 47.4371 225.553 45.7331 225.553C43.9811 225.553 42.3971 225.121 40.9811 224.257C39.5651 223.393 38.4491 222.181 37.6331 220.621C36.8171 219.061 36.4091 217.285 36.4091 215.293ZM53.1131 215.329C53.1131 213.841 52.8131 212.545 52.2131 211.441C51.6131 210.337 50.7971 209.497 49.7651 208.921C48.7571 208.321 47.6411 208.021 46.4171 208.021C45.1931 208.021 44.0771 208.309 43.0691 208.885C42.0611 209.461 41.2571 210.301 40.6571 211.405C40.0571 212.509 39.7571 213.805 39.7571 215.293C39.7571 216.805 40.0571 218.125 40.6571 219.253C41.2571 220.357 42.0611 221.209 43.0691 221.809C44.0771 222.385 45.1931 222.673 46.4171 222.673C47.6411 222.673 48.7571 222.385 49.7651 221.809C50.7971 221.209 51.6131 220.357 52.2131 219.253C52.8131 218.125 53.1131 216.817 53.1131 215.329ZM71.3132 205.141C73.7132 205.141 75.6572 205.873 77.1452 207.337C78.6332 208.777 79.3772 210.865 79.3772 213.601V225.229H76.1372V214.069C76.1372 212.101 75.6452 210.601 74.6612 209.569C73.6772 208.513 72.3332 207.985 70.6292 207.985C68.9012 207.985 67.5212 208.525 66.4892 209.605C65.4812 210.685 64.9772 212.257 64.9772 214.321V225.229H61.7012V205.501H64.9772V208.309C65.6252 207.301 66.5012 206.521 67.6052 205.969C68.7332 205.417 69.9692 205.141 71.3132 205.141ZM88.4646 208.201V219.829C88.4646 220.789 88.6686 221.473 89.0766 221.881C89.4846 222.265 90.1926 222.457 91.2006 222.457H93.6126V225.229H90.6606C88.8366 225.229 87.4686 224.809 86.5566 223.969C85.6446 223.129 85.1886 221.749 85.1886 219.829V208.201H82.6326V205.501H85.1886V200.533H88.4646V205.501H93.6126V208.201H88.4646ZM108.351 202.297C107.727 202.297 107.199 202.081 106.767 201.649C106.335 201.217 106.119 200.689 106.119 200.065C106.119 199.441 106.335 198.913 106.767 198.481C107.199 198.049 107.727 197.833 108.351 197.833C108.951 197.833 109.455 198.049 109.863 198.481C110.295 198.913 110.511 199.441 110.511 200.065C110.511 200.689 110.295 201.217 109.863 201.649C109.455 202.081 108.951 202.297 108.351 202.297ZM109.935 205.501V225.229H106.659V205.501H109.935ZM133.259 214.609C133.259 215.233 133.223 215.893 133.151 216.589H117.383C117.503 218.533 118.163 220.057 119.363 221.161C120.587 222.241 122.063 222.781 123.791 222.781C125.207 222.781 126.383 222.457 127.319 221.809C128.279 221.137 128.951 220.249 129.335 219.145H132.863C132.335 221.041 131.279 222.589 129.695 223.789C128.111 224.965 126.143 225.553 123.791 225.553C121.919 225.553 120.239 225.133 118.751 224.293C117.287 223.453 116.135 222.265 115.295 220.729C114.455 219.169 114.035 217.369 114.035 215.329C114.035 213.289 114.443 211.501 115.259 209.965C116.075 208.429 117.215 207.253 118.679 206.437C120.167 205.597 121.871 205.177 123.791 205.177C125.663 205.177 127.319 205.585 128.759 206.401C130.199 207.217 131.303 208.345 132.071 209.785C132.863 211.201 133.259 212.809 133.259 214.609ZM129.875 213.925C129.875 212.677 129.599 211.609 129.047 210.721C128.495 209.809 127.739 209.125 126.779 208.669C125.843 208.189 124.799 207.949 123.647 207.949C121.991 207.949 120.575 208.477 119.399 209.533C118.247 210.589 117.587 212.053 117.419 213.925H129.875ZM136.099 215.293C136.099 213.277 136.507 211.513 137.323 210.001C138.139 208.465 139.255 207.277 140.671 206.437C142.111 205.597 143.719 205.177 145.495 205.177C147.031 205.177 148.459 205.537 149.779 206.257C151.099 206.953 152.107 207.877 152.803 209.029V198.589H156.115V225.229H152.803V221.521C152.155 222.697 151.195 223.669 149.923 224.437C148.651 225.181 147.163 225.553 145.459 225.553C143.707 225.553 142.111 225.121 140.671 224.257C139.255 223.393 138.139 222.181 137.323 220.621C136.507 219.061 136.099 217.285 136.099 215.293ZM152.803 215.329C152.803 213.841 152.503 212.545 151.903 211.441C151.303 210.337 150.487 209.497 149.455 208.921C148.447 208.321 147.331 208.021 146.107 208.021C144.883 208.021 143.767 208.309 142.759 208.885C141.751 209.461 140.947 210.301 140.347 211.405C139.747 212.509 139.447 213.805 139.447 215.293C139.447 216.805 139.747 218.125 140.347 219.253C140.947 220.357 141.751 221.209 142.759 221.809C143.767 222.385 144.883 222.673 146.107 222.673C147.331 222.673 148.447 222.385 149.455 221.809C150.487 221.209 151.303 220.357 151.903 219.253C152.503 218.125 152.803 216.817 152.803 215.329ZM179.391 214.609C179.391 215.233 179.355 215.893 179.283 216.589H163.515C163.635 218.533 164.295 220.057 165.495 221.161C166.719 222.241 168.195 222.781 169.923 222.781C171.339 222.781 172.515 222.457 173.451 221.809C174.411 221.137 175.083 220.249 175.467 219.145H178.995C178.467 221.041 177.411 222.589 175.827 223.789C174.243 224.965 172.275 225.553 169.923 225.553C168.051 225.553 166.371 225.133 164.883 224.293C163.419 223.453 162.267 222.265 161.427 220.729C160.587 219.169 160.167 217.369 160.167 215.329C160.167 213.289 160.575 211.501 161.391 209.965C162.207 208.429 163.347 207.253 164.811 206.437C166.299 205.597 168.003 205.177 169.923 205.177C171.795 205.177 173.451 205.585 174.891 206.401C176.331 207.217 177.435 208.345 178.203 209.785C178.995 211.201 179.391 212.809 179.391 214.609ZM176.007 213.925C176.007 212.677 175.731 211.609 175.179 210.721C174.627 209.809 173.871 209.125 172.911 208.669C171.975 208.189 170.931 207.949 169.779 207.949C168.123 207.949 166.707 208.477 165.531 209.533C164.379 210.589 163.719 212.053 163.551 213.925H176.007ZM186.731 208.705C187.307 207.577 188.123 206.701 189.179 206.077C190.259 205.453 191.567 205.141 193.103 205.141V208.525H192.239C188.567 208.525 186.731 210.517 186.731 214.501V225.229H183.455V205.501H186.731V208.705ZM214.625 214.609C214.625 215.233 214.589 215.893 214.517 216.589H198.749C198.869 218.533 199.529 220.057 200.729 221.161C201.953 222.241 203.429 222.781 205.157 222.781C206.573 222.781 207.749 222.457 208.685 221.809C209.645 221.137 210.317 220.249 210.701 219.145H214.229C213.701 221.041 212.645 222.589 211.061 223.789C209.477 224.965 207.509 225.553 205.157 225.553C203.285 225.553 201.605 225.133 200.117 224.293C198.653 223.453 197.501 222.265 196.661 220.729C195.821 219.169 195.401 217.369 195.401 215.329C195.401 213.289 195.809 211.501 196.625 209.965C197.441 208.429 198.581 207.253 200.045 206.437C201.533 205.597 203.237 205.177 205.157 205.177C207.029 205.177 208.685 205.585 210.125 206.401C211.565 207.217 212.669 208.345 213.437 209.785C214.229 211.201 214.625 212.809 214.625 214.609ZM211.241 213.925C211.241 212.677 210.965 211.609 210.413 210.721C209.861 209.809 209.105 209.125 208.145 208.669C207.209 208.189 206.165 207.949 205.013 207.949C203.357 207.949 201.941 208.477 200.765 209.533C199.613 210.589 198.953 212.053 198.785 213.925H211.241ZM236.689 214.609C236.689 215.233 236.653 215.893 236.581 216.589H220.813C220.933 218.533 221.593 220.057 222.793 221.161C224.017 222.241 225.493 222.781 227.221 222.781C228.637 222.781 229.813 222.457 230.749 221.809C231.709 221.137 232.381 220.249 232.765 219.145H236.293C235.765 221.041 234.709 222.589 233.125 223.789C231.541 224.965 229.573 225.553 227.221 225.553C225.349 225.553 223.669 225.133 222.181 224.293C220.717 223.453 219.565 222.265 218.725 220.729C217.885 219.169 217.465 217.369 217.465 215.329C217.465 213.289 217.873 211.501 218.689 209.965C219.505 208.429 220.645 207.253 222.109 206.437C223.597 205.597 225.301 205.177 227.221 205.177C229.093 205.177 230.749 205.585 232.189 206.401C233.629 207.217 234.733 208.345 235.501 209.785C236.293 211.201 236.689 212.809 236.689 214.609ZM233.305 213.925C233.305 212.677 233.029 211.609 232.477 210.721C231.925 209.809 231.169 209.125 230.209 208.669C229.273 208.189 228.229 207.949 227.077 207.949C225.421 207.949 224.005 208.477 222.829 209.533C221.677 210.589 221.017 212.053 220.849 213.925H233.305ZM250.366 205.141C252.766 205.141 254.71 205.873 256.198 207.337C257.686 208.777 258.43 210.865 258.43 213.601V225.229H255.19V214.069C255.19 212.101 254.698 210.601 253.714 209.569C252.73 208.513 251.386 207.985 249.682 207.985C247.954 207.985 246.574 208.525 245.542 209.605C244.534 210.685 244.03 212.257 244.03 214.321V225.229H240.754V205.501H244.03V208.309C244.678 207.301 245.554 206.521 246.658 205.969C247.786 205.417 249.022 205.141 250.366 205.141ZM280.203 222.205L286.323 205.501H289.815L282.075 225.229H278.259L270.519 205.501H274.047L280.203 222.205ZM310.778 214.609C310.778 215.233 310.742 215.893 310.67 216.589H294.902C295.022 218.533 295.682 220.057 296.882 221.161C298.106 222.241 299.582 222.781 301.31 222.781C302.726 222.781 303.902 222.457 304.838 221.809C305.798 221.137 306.47 220.249 306.854 219.145H310.382C309.854 221.041 308.798 222.589 307.214 223.789C305.63 224.965 303.662 225.553 301.31 225.553C299.438 225.553 297.758 225.133 296.27 224.293C294.806 223.453 293.654 222.265 292.814 220.729C291.974 219.169 291.554 217.369 291.554 215.329C291.554 213.289 291.962 211.501 292.778 209.965C293.594 208.429 294.734 207.253 296.198 206.437C297.686 205.597 299.39 205.177 301.31 205.177C303.182 205.177 304.838 205.585 306.278 206.401C307.718 207.217 308.822 208.345 309.59 209.785C310.382 211.201 310.778 212.809 310.778 214.609ZM307.394 213.925C307.394 212.677 307.118 211.609 306.566 210.721C306.014 209.809 305.258 209.125 304.298 208.669C303.362 208.189 302.318 207.949 301.166 207.949C299.51 207.949 298.094 208.477 296.918 209.533C295.766 210.589 295.106 212.053 294.938 213.925H307.394ZM318.118 208.705C318.694 207.577 319.51 206.701 320.566 206.077C321.646 205.453 322.954 205.141 324.49 205.141V208.525H323.626C319.954 208.525 318.118 210.517 318.118 214.501V225.229H314.842V205.501H318.118V208.705ZM326.788 215.293C326.788 213.277 327.196 211.513 328.012 210.001C328.828 208.465 329.944 207.277 331.36 206.437C332.8 205.597 334.408 205.177 336.184 205.177C337.72 205.177 339.148 205.537 340.468 206.257C341.788 206.953 342.796 207.877 343.492 209.029V198.589H346.804V225.229H343.492V221.521C342.844 222.697 341.884 223.669 340.612 224.437C339.34 225.181 337.852 225.553 336.148 225.553C334.396 225.553 332.8 225.121 331.36 224.257C329.944 223.393 328.828 222.181 328.012 220.621C327.196 219.061 326.788 217.285 326.788 215.293ZM343.492 215.329C343.492 213.841 343.192 212.545 342.592 211.441C341.992 210.337 341.176 209.497 340.144 208.921C339.136 208.321 338.02 208.021 336.796 208.021C335.572 208.021 334.456 208.309 333.448 208.885C332.44 209.461 331.636 210.301 331.036 211.405C330.436 212.509 330.136 213.805 330.136 215.293C330.136 216.805 330.436 218.125 331.036 219.253C331.636 220.357 332.44 221.209 333.448 221.809C334.456 222.385 335.572 222.673 336.796 222.673C338.02 222.673 339.136 222.385 340.144 221.809C341.176 221.209 341.992 220.357 342.592 219.253C343.192 218.125 343.492 216.817 343.492 215.329ZM353.772 202.297C353.148 202.297 352.62 202.081 352.188 201.649C351.756 201.217 351.54 200.689 351.54 200.065C351.54 199.441 351.756 198.913 352.188 198.481C352.62 198.049 353.148 197.833 353.772 197.833C354.372 197.833 354.876 198.049 355.284 198.481C355.716 198.913 355.932 199.441 355.932 200.065C355.932 200.689 355.716 201.217 355.284 201.649C354.876 202.081 354.372 202.297 353.772 202.297ZM355.356 205.501V225.229H352.08V205.501H355.356ZM378.68 214.609C378.68 215.233 378.644 215.893 378.572 216.589H362.804C362.924 218.533 363.584 220.057 364.784 221.161C366.008 222.241 367.484 222.781 369.212 222.781C370.628 222.781 371.804 222.457 372.74 221.809C373.7 221.137 374.372 220.249 374.756 219.145H378.284C377.756 221.041 376.7 222.589 375.116 223.789C373.532 224.965 371.564 225.553 369.212 225.553C367.34 225.553 365.66 225.133 364.172 224.293C362.708 223.453 361.556 222.265 360.716 220.729C359.876 219.169 359.456 217.369 359.456 215.329C359.456 213.289 359.864 211.501 360.68 209.965C361.496 208.429 362.636 207.253 364.1 206.437C365.588 205.597 367.292 205.177 369.212 205.177C371.084 205.177 372.74 205.585 374.18 206.401C375.62 207.217 376.724 208.345 377.492 209.785C378.284 211.201 378.68 212.809 378.68 214.609ZM375.296 213.925C375.296 212.677 375.02 211.609 374.468 210.721C373.916 209.809 373.16 209.125 372.2 208.669C371.264 208.189 370.22 207.949 369.068 207.949C367.412 207.949 365.996 208.477 364.82 209.533C363.668 210.589 363.008 212.053 362.84 213.925H375.296ZM392.356 205.141C394.756 205.141 396.7 205.873 398.188 207.337C399.676 208.777 400.42 210.865 400.42 213.601V225.229H397.18V214.069C397.18 212.101 396.688 210.601 395.704 209.569C394.72 208.513 393.376 207.985 391.672 207.985C389.944 207.985 388.564 208.525 387.532 209.605C386.524 210.685 386.02 212.257 386.02 214.321V225.229H382.744V205.501H386.02V208.309C386.668 207.301 387.544 206.521 388.648 205.969C389.776 205.417 391.012 205.141 392.356 205.141ZM409.507 208.201V219.829C409.507 220.789 409.711 221.473 410.119 221.881C410.527 222.265 411.235 222.457 412.243 222.457H414.655V225.229H411.703C409.879 225.229 408.511 224.809 407.599 223.969C406.687 223.129 406.231 221.749 406.231 219.829V208.201H403.675V205.501H406.231V200.533H409.507V205.501H414.655V208.201H409.507ZM430.978 209.173C431.65 207.997 432.634 207.037 433.93 206.293C435.226 205.549 436.702 205.177 438.358 205.177C440.134 205.177 441.73 205.597 443.146 206.437C444.562 207.277 445.678 208.465 446.494 210.001C447.31 211.513 447.718 213.277 447.718 215.293C447.718 217.285 447.31 219.061 446.494 220.621C445.678 222.181 444.55 223.393 443.11 224.257C441.694 225.121 440.11 225.553 438.358 225.553C436.654 225.553 435.154 225.181 433.858 224.437C432.586 223.693 431.626 222.745 430.978 221.593V225.229H427.702V198.589H430.978V209.173ZM444.37 215.293C444.37 213.805 444.07 212.509 443.47 211.405C442.87 210.301 442.054 209.461 441.022 208.885C440.014 208.309 438.898 208.021 437.674 208.021C436.474 208.021 435.358 208.321 434.326 208.921C433.318 209.497 432.502 210.349 431.878 211.477C431.278 212.581 430.978 213.865 430.978 215.329C430.978 216.817 431.278 218.125 431.878 219.253C432.502 220.357 433.318 221.209 434.326 221.809C435.358 222.385 436.474 222.673 437.674 222.673C438.898 222.673 440.014 222.385 441.022 221.809C442.054 221.209 442.87 220.357 443.47 219.253C444.07 218.125 444.37 216.805 444.37 215.293ZM469.77 214.609C469.77 215.233 469.734 215.893 469.662 216.589H453.894C454.014 218.533 454.674 220.057 455.874 221.161C457.098 222.241 458.574 222.781 460.302 222.781C461.718 222.781 462.894 222.457 463.83 221.809C464.79 221.137 465.462 220.249 465.846 219.145H469.374C468.846 221.041 467.79 222.589 466.206 223.789C464.622 224.965 462.654 225.553 460.302 225.553C458.43 225.553 456.75 225.133 455.262 224.293C453.798 223.453 452.646 222.265 451.806 220.729C450.966 219.169 450.546 217.369 450.546 215.329C450.546 213.289 450.954 211.501 451.77 209.965C452.586 208.429 453.726 207.253 455.19 206.437C456.678 205.597 458.382 205.177 460.302 205.177C462.174 205.177 463.83 205.585 465.27 206.401C466.71 207.217 467.814 208.345 468.582 209.785C469.374 211.201 469.77 212.809 469.77 214.609ZM466.386 213.925C466.386 212.677 466.11 211.609 465.558 210.721C465.006 209.809 464.25 209.125 463.29 208.669C462.354 208.189 461.31 207.949 460.158 207.949C458.502 207.949 457.086 208.477 455.91 209.533C454.758 210.589 454.098 212.053 453.93 213.925H466.386ZM481.971 205.177C483.675 205.177 485.163 205.549 486.435 206.293C487.731 207.037 488.691 207.973 489.315 209.101V205.501H492.627V225.661C492.627 227.461 492.243 229.057 491.475 230.449C490.707 231.865 489.603 232.969 488.163 233.761C486.747 234.553 485.091 234.949 483.195 234.949C480.603 234.949 478.443 234.337 476.715 233.113C474.987 231.889 473.967 230.221 473.655 228.109H476.895C477.255 229.309 477.999 230.269 479.127 230.989C480.255 231.733 481.611 232.105 483.195 232.105C484.995 232.105 486.459 231.541 487.587 230.413C488.739 229.285 489.315 227.701 489.315 225.661V221.521C488.667 222.673 487.707 223.633 486.435 224.401C485.163 225.169 483.675 225.553 481.971 225.553C480.219 225.553 478.623 225.121 477.183 224.257C475.767 223.393 474.651 222.181 473.835 220.621C473.019 219.061 472.611 217.285 472.611 215.293C472.611 213.277 473.019 211.513 473.835 210.001C474.651 208.465 475.767 207.277 477.183 206.437C478.623 205.597 480.219 205.177 481.971 205.177ZM489.315 215.329C489.315 213.841 489.015 212.545 488.415 211.441C487.815 210.337 486.999 209.497 485.967 208.921C484.959 208.321 483.843 208.021 482.619 208.021C481.395 208.021 480.279 208.309 479.271 208.885C478.263 209.461 477.459 210.301 476.859 211.405C476.259 212.509 475.959 213.805 475.959 215.293C475.959 216.805 476.259 218.125 476.859 219.253C477.459 220.357 478.263 221.209 479.271 221.809C480.279 222.385 481.395 222.673 482.619 222.673C483.843 222.673 484.959 222.385 485.967 221.809C486.999 221.209 487.815 220.357 488.415 219.253C489.015 218.125 489.315 216.817 489.315 215.329ZM501.179 208.705C501.755 207.577 502.571 206.701 503.627 206.077C504.707 205.453 506.015 205.141 507.551 205.141V208.525H506.687C503.015 208.525 501.179 210.517 501.179 214.501V225.229H497.903V205.501H501.179V208.705ZM529.072 214.609C529.072 215.233 529.036 215.893 528.964 216.589H513.196C513.316 218.533 513.976 220.057 515.176 221.161C516.4 222.241 517.876 222.781 519.604 222.781C521.02 222.781 522.196 222.457 523.132 221.809C524.092 221.137 524.764 220.249 525.148 219.145H528.676C528.148 221.041 527.092 222.589 525.508 223.789C523.924 224.965 521.956 225.553 519.604 225.553C517.732 225.553 516.052 225.133 514.564 224.293C513.1 223.453 511.948 222.265 511.108 220.729C510.268 219.169 509.848 217.369 509.848 215.329C509.848 213.289 510.256 211.501 511.072 209.965C511.888 208.429 513.028 207.253 514.492 206.437C515.98 205.597 517.684 205.177 519.604 205.177C521.476 205.177 523.132 205.585 524.572 206.401C526.012 207.217 527.116 208.345 527.884 209.785C528.676 211.201 529.072 212.809 529.072 214.609ZM525.688 213.925C525.688 212.677 525.412 211.609 524.86 210.721C524.308 209.809 523.552 209.125 522.592 208.669C521.656 208.189 520.612 207.949 519.46 207.949C517.804 207.949 516.388 208.477 515.212 209.533C514.06 210.589 513.4 212.053 513.232 213.925H525.688ZM536.413 209.137C537.061 208.009 538.021 207.073 539.293 206.329C540.589 205.561 542.089 205.177 543.793 205.177C545.545 205.177 547.129 205.597 548.545 206.437C549.985 207.277 551.113 208.465 551.929 210.001C552.745 211.513 553.153 213.277 553.153 215.293C553.153 217.285 552.745 219.061 551.929 220.621C551.113 222.181 549.985 223.393 548.545 224.257C547.129 225.121 545.545 225.553 543.793 225.553C542.113 225.553 540.625 225.181 539.329 224.437C538.057 223.669 537.085 222.721 536.413 221.593V234.589H533.137V205.501H536.413V209.137ZM549.805 215.293C549.805 213.805 549.505 212.509 548.905 211.405C548.305 210.301 547.489 209.461 546.457 208.885C545.449 208.309 544.333 208.021 543.109 208.021C541.909 208.021 540.793 208.321 539.761 208.921C538.753 209.497 537.937 210.349 537.313 211.477C536.713 212.581 536.413 213.865 536.413 215.329C536.413 216.817 536.713 218.125 537.313 219.253C537.937 220.357 538.753 221.209 539.761 221.809C540.793 222.385 541.909 222.673 543.109 222.673C544.333 222.673 545.449 222.385 546.457 221.809C547.489 221.209 548.305 220.357 548.905 219.253C549.505 218.125 549.805 216.805 549.805 215.293ZM575.205 214.609C575.205 215.233 575.169 215.893 575.097 216.589H559.329C559.449 218.533 560.109 220.057 561.309 221.161C562.533 222.241 564.009 222.781 565.737 222.781C567.153 222.781 568.329 222.457 569.265 221.809C570.225 221.137 570.897 220.249 571.281 219.145H574.809C574.281 221.041 573.225 222.589 571.641 223.789C570.057 224.965 568.089 225.553 565.737 225.553C563.865 225.553 562.185 225.133 560.697 224.293C559.233 223.453 558.081 222.265 557.241 220.729C556.401 219.169 555.981 217.369 555.981 215.329C555.981 213.289 556.389 211.501 557.205 209.965C558.021 208.429 559.161 207.253 560.625 206.437C562.113 205.597 563.817 205.177 565.737 205.177C567.609 205.177 569.265 205.585 570.705 206.401C572.145 207.217 573.249 208.345 574.017 209.785C574.809 211.201 575.205 212.809 575.205 214.609ZM571.821 213.925C571.821 212.677 571.545 211.609 570.993 210.721C570.441 209.809 569.685 209.125 568.725 208.669C567.789 208.189 566.745 207.949 565.593 207.949C563.937 207.949 562.521 208.477 561.345 209.533C560.193 210.589 559.533 212.053 559.365 213.925H571.821ZM588.881 205.141C591.281 205.141 593.225 205.873 594.713 207.337C596.201 208.777 596.945 210.865 596.945 213.601V225.229H593.705V214.069C593.705 212.101 593.213 210.601 592.229 209.569C591.245 208.513 589.901 207.985 588.197 207.985C586.469 207.985 585.089 208.525 584.057 209.605C583.049 210.685 582.545 212.257 582.545 214.321V225.229H579.269V205.501H582.545V208.309C583.193 207.301 584.069 206.521 585.173 205.969C586.301 205.417 587.537 205.141 588.881 205.141ZM615.37 208.201V219.829C615.37 220.789 615.574 221.473 615.982 221.881C616.39 222.265 617.098 222.457 618.106 222.457H620.518V225.229H617.566C615.742 225.229 614.374 224.809 613.462 223.969C612.55 223.129 612.094 221.749 612.094 219.829V208.201H609.538V205.501H612.094V200.533H615.37V205.501H620.518V208.201H615.37ZM642.227 214.609C642.227 215.233 642.191 215.893 642.119 216.589H626.351C626.471 218.533 627.131 220.057 628.331 221.161C629.555 222.241 631.031 222.781 632.759 222.781C634.175 222.781 635.351 222.457 636.287 221.809C637.247 221.137 637.919 220.249 638.303 219.145H641.831C641.303 221.041 640.247 222.589 638.663 223.789C637.079 224.965 635.111 225.553 632.759 225.553C630.887 225.553 629.207 225.133 627.719 224.293C626.255 223.453 625.103 222.265 624.263 220.729C623.423 219.169 623.003 217.369 623.003 215.329C623.003 213.289 623.411 211.501 624.227 209.965C625.043 208.429 626.183 207.253 627.647 206.437C629.135 205.597 630.839 205.177 632.759 205.177C634.631 205.177 636.287 205.585 637.727 206.401C639.167 207.217 640.271 208.345 641.039 209.785C641.831 211.201 642.227 212.809 642.227 214.609ZM638.843 213.925C638.843 212.677 638.567 211.609 638.015 210.721C637.463 209.809 636.707 209.125 635.747 208.669C634.811 208.189 633.767 207.949 632.615 207.949C630.959 207.949 629.543 208.477 628.367 209.533C627.215 210.589 626.555 212.053 626.387 213.925H638.843ZM681.909 205.501L675.753 225.229H672.369L667.617 209.569L662.865 225.229H659.481L653.289 205.501H656.637L661.173 222.061L666.069 205.501H669.417L674.205 222.097L678.669 205.501H681.909ZM693.504 225.553C691.656 225.553 689.976 225.133 688.464 224.293C686.976 223.453 685.8 222.265 684.936 220.729C684.096 219.169 683.676 217.369 683.676 215.329C683.676 213.313 684.108 211.537 684.972 210.001C685.86 208.441 687.06 207.253 688.572 206.437C690.084 205.597 691.776 205.177 693.648 205.177C695.52 205.177 697.212 205.597 698.724 206.437C700.236 207.253 701.424 208.429 702.288 209.965C703.176 211.501 703.62 213.289 703.62 215.329C703.62 217.369 703.164 219.169 702.252 220.729C701.364 222.265 700.152 223.453 698.616 224.293C697.08 225.133 695.376 225.553 693.504 225.553ZM693.504 222.673C694.68 222.673 695.784 222.397 696.816 221.845C697.848 221.293 698.676 220.465 699.3 219.361C699.948 218.257 700.272 216.913 700.272 215.329C700.272 213.745 699.96 212.401 699.336 211.297C698.712 210.193 697.896 209.377 696.888 208.849C695.88 208.297 694.788 208.021 693.612 208.021C692.412 208.021 691.308 208.297 690.3 208.849C689.316 209.377 688.524 210.193 687.924 211.297C687.324 212.401 687.024 213.745 687.024 215.329C687.024 216.937 687.312 218.293 687.888 219.397C688.488 220.501 689.28 221.329 690.264 221.881C691.248 222.409 692.328 222.673 693.504 222.673ZM710.944 208.705C711.52 207.577 712.336 206.701 713.392 206.077C714.472 205.453 715.78 205.141 717.316 205.141V208.525H716.452C712.78 208.525 710.944 210.517 710.944 214.501V225.229H707.668V205.501H710.944V208.705ZM719.613 215.293C719.613 213.277 720.021 211.513 720.837 210.001C721.653 208.465 722.769 207.277 724.185 206.437C725.625 205.597 727.233 205.177 729.009 205.177C730.545 205.177 731.973 205.537 733.293 206.257C734.613 206.953 735.621 207.877 736.317 209.029V198.589H739.629V225.229H736.317V221.521C735.669 222.697 734.709 223.669 733.437 224.437C732.165 225.181 730.677 225.553 728.973 225.553C727.221 225.553 725.625 225.121 724.185 224.257C722.769 223.393 721.653 222.181 720.837 220.621C720.021 219.061 719.613 217.285 719.613 215.293ZM736.317 215.329C736.317 213.841 736.017 212.545 735.417 211.441C734.817 210.337 734.001 209.497 732.969 208.921C731.961 208.321 730.845 208.021 729.621 208.021C728.397 208.021 727.281 208.309 726.273 208.885C725.265 209.461 724.461 210.301 723.861 211.405C723.261 212.509 722.961 213.805 722.961 215.293C722.961 216.805 723.261 218.125 723.861 219.253C724.461 220.357 725.265 221.209 726.273 221.809C727.281 222.385 728.397 222.673 729.621 222.673C730.845 222.673 731.961 222.385 732.969 221.809C734.001 221.209 734.817 220.357 735.417 219.253C736.017 218.125 736.317 216.817 736.317 215.329ZM762.905 214.609C762.905 215.233 762.869 215.893 762.797 216.589H747.029C747.149 218.533 747.809 220.057 749.009 221.161C750.233 222.241 751.709 222.781 753.437 222.781C754.853 222.781 756.029 222.457 756.965 221.809C757.925 221.137 758.597 220.249 758.981 219.145H762.509C761.981 221.041 760.925 222.589 759.341 223.789C757.757 224.965 755.789 225.553 753.437 225.553C751.565 225.553 749.885 225.133 748.397 224.293C746.933 223.453 745.781 222.265 744.941 220.729C744.101 219.169 743.681 217.369 743.681 215.329C743.681 213.289 744.089 211.501 744.905 209.965C745.721 208.429 746.861 207.253 748.325 206.437C749.813 205.597 751.517 205.177 753.437 205.177C755.309 205.177 756.965 205.585 758.405 206.401C759.845 207.217 760.949 208.345 761.717 209.785C762.509 211.201 762.905 212.809 762.905 214.609ZM759.521 213.925C759.521 212.677 759.245 211.609 758.693 210.721C758.141 209.809 757.385 209.125 756.425 208.669C755.489 208.189 754.445 207.949 753.293 207.949C751.637 207.949 750.221 208.477 749.045 209.533C747.893 210.589 747.233 212.053 747.065 213.925H759.521ZM776.582 205.141C778.982 205.141 780.926 205.873 782.414 207.337C783.902 208.777 784.646 210.865 784.646 213.601V225.229H781.406V214.069C781.406 212.101 780.914 210.601 779.93 209.569C778.946 208.513 777.602 207.985 775.898 207.985C774.17 207.985 772.79 208.525 771.758 209.605C770.75 210.685 770.246 212.257 770.246 214.321V225.229H766.97V205.501H770.246V208.309C770.894 207.301 771.77 206.521 772.874 205.969C774.002 205.417 775.238 205.141 776.582 205.141ZM790.781 225.445C790.157 225.445 789.629 225.229 789.197 224.797C788.765 224.365 788.549 223.837 788.549 223.213C788.549 222.589 788.765 222.061 789.197 221.629C789.629 221.197 790.157 220.981 790.781 220.981C791.381 220.981 791.885 221.197 792.293 221.629C792.725 222.061 792.941 222.589 792.941 223.213C792.941 223.837 792.725 224.365 792.293 224.797C791.885 225.229 791.381 225.445 790.781 225.445Z" fill="#B99D69"/>
</svg>
