<svg width="156" height="140" viewBox="0 0 156 140" fill="none" xmlns="http://www.w3.org/2000/svg">
<g clip-path="url(#clip0_134_4198)">
<path d="M41.5211 26.825C48.9424 26.825 54.895 20.8724 54.895 13.3738C54.895 5.95252 48.9424 0 41.5211 0C34.0998 0 28.0701 5.95252 28.0701 13.3738C28.0701 20.8724 34.0998 26.825 41.5211 26.825ZM41.5211 86.582C43.9949 86.582 44.9227 88.2827 46.3915 92.6893C48.4787 98.8737 54.6631 124.694 56.7503 132.192C57.8328 136.135 59.8425 137.681 62.7029 137.681C66.7229 137.681 69.1967 134.047 68.037 130.182C67.5732 128.559 58.6831 91.2202 57.4463 83.4898C56.3637 76.9963 56.1319 64.0862 56.1319 56.9739C56.1319 55.9692 57.2144 55.5827 57.8328 56.433C62.7029 63.2359 70.8973 74.9863 72.5208 76.9188C74.3761 79.006 77.3136 79.3926 79.7874 78.001C82.9568 76.2232 83.6527 72.8216 82.4159 70.5025C81.8746 69.6522 81.2562 68.7243 80.7152 67.874L64.481 43.7548C59.6882 36.7972 53.89 33.0094 41.5211 33.0094C29.0751 33.0094 23.2772 36.7972 18.5615 43.7548L2.25011 67.874C1.70897 68.7243 1.09053 69.6522 0.626699 70.5025C-0.687491 72.8216 0.00825671 76.2232 3.25508 78.001C5.65155 79.3926 8.58917 79.006 10.4445 76.9188C12.1452 74.9863 20.3396 63.3131 25.1325 56.433C25.6736 55.6599 26.9105 55.9693 26.9105 57.0514C26.9105 64.1634 26.6786 76.9963 25.5964 83.4898C24.2822 91.2202 15.4693 128.559 15.0055 130.182C13.8459 134.047 16.3197 137.681 20.2623 137.681C23.1999 137.681 25.2098 136.135 26.2148 132.192C28.302 124.694 34.4864 98.8737 36.6511 92.6893C38.1198 88.2827 39.0473 86.582 41.5211 86.582ZM112.41 26.825C119.831 26.825 125.784 20.8724 125.784 13.3738C125.784 5.95252 119.831 0 112.41 0C104.912 0 98.9591 5.95252 98.9591 13.3738C98.9591 20.8724 104.912 26.825 112.41 26.825ZM112.41 86.582C114.884 86.582 115.812 88.2827 117.281 92.6893C119.368 98.8737 125.552 124.694 127.639 132.192C128.722 136.135 130.732 137.681 133.592 137.681C137.612 137.681 140.008 134.047 138.926 130.182C138.462 128.559 129.572 91.2202 128.258 83.4898C127.253 76.9963 126.944 64.0862 126.944 56.9739C126.944 55.9692 128.103 55.5827 128.722 56.433C133.592 63.2359 141.786 74.9863 143.41 76.9188C145.265 79.006 148.203 79.3926 150.676 78.001C153.846 76.2232 154.542 72.8216 153.227 70.5025C152.764 69.6522 152.145 68.7243 151.604 67.874L135.293 43.7548C130.577 36.7972 124.779 33.0094 112.41 33.0094C99.9641 33.0094 94.1663 36.7972 89.4506 43.7548L73.1392 67.874C72.598 68.7243 71.9795 69.6522 71.5158 70.5025C70.2017 72.8216 70.8973 76.2232 74.1442 78.001C76.5405 79.3926 79.4783 79.006 81.3337 76.9188C83.0343 74.9863 91.1512 63.3131 96.0216 56.433C96.5625 55.6599 97.7994 55.9693 97.7994 57.0514C97.7994 64.1634 97.5676 76.9963 96.4854 83.4898C95.1713 91.2202 86.3584 128.559 85.8946 130.182C84.7349 134.047 87.1315 137.681 91.1512 137.681C94.0888 137.681 96.0216 136.135 97.1038 132.192C99.191 124.694 105.375 98.8737 107.54 92.6893C108.931 88.2827 109.936 86.582 112.41 86.582Z" fill="#B99D69"/>
</g>
<defs>
<clipPath id="clip0_134_4198">
<rect width="155.014" height="140" fill="white"/>
</clipPath>
</defs>
</svg>
